<svg width="20" height="20" viewBox="0 0 20 20" fill="none" xmlns="http://www.w3.org/2000/svg">
<path d="M15 1.99976H19C19.2652 1.99976 19.5196 2.10511 19.7071 2.29265C19.8946 2.48019 20 2.73454 20 2.99976V18.9998C20 19.265 19.8946 19.5193 19.7071 19.7069C19.5196 19.8944 19.2652 19.9998 19 19.9998H1C0.734784 19.9998 0.48043 19.8944 0.292893 19.7069C0.105357 19.5193 0 19.265 0 18.9998V2.99976C0 2.73454 0.105357 2.48019 0.292893 2.29265C0.48043 2.10511 0.734784 1.99976 1 1.99976H5V-0.000244141H7V1.99976H13V-0.000244141H15V1.99976ZM13 3.99976H7V5.99976H5V3.99976H2V7.99976H18V3.99976H15V5.99976H13V3.99976ZM18 9.99976H2V17.9998H18V9.99976Z" fill="#6B61FF"/>
</svg>
