<svg width="20" height="18" viewBox="0 0 20 18" fill="none" xmlns="http://www.w3.org/2000/svg">
<path d="M10.4139 2H18.9999C19.2651 2 19.5195 2.10536 19.707 2.29289C19.8946 2.48043 19.9999 2.73478 19.9999 3V17C19.9999 17.2652 19.8946 17.5196 19.707 17.7071C19.5195 17.8946 19.2651 18 18.9999 18H0.999908C0.734692 18 0.480338 17.8946 0.292802 17.7071C0.105265 17.5196 -9.15527e-05 17.2652 -9.15527e-05 17V1C-9.15527e-05 0.734784 0.105265 0.48043 0.292802 0.292893C0.480338 0.105357 0.734692 0 0.999908 0H8.41391L10.4139 2ZM1.99991 2V16H17.9999V4H9.58591L7.58591 2H1.99991ZM8.99991 10.05V6H13.9999V8H10.9999V12.5C10.9998 13.0159 10.8401 13.5191 10.5427 13.9407C10.2453 14.3622 9.8248 14.6814 9.33882 14.8545C8.85285 15.0276 8.32522 15.0462 7.8283 14.9076C7.33137 14.769 6.88949 14.4801 6.56326 14.0804C6.23702 13.6808 6.04241 13.19 6.00611 12.6754C5.9698 12.1608 6.09359 11.6476 6.3605 11.2061C6.6274 10.7646 7.02434 10.4165 7.49689 10.2095C7.96944 10.0025 8.49444 9.94682 8.99991 10.05V10.05Z" fill="#37354D"/>
</svg>
