<svg width="18" height="18" viewBox="0 0 18 18" fill="none" xmlns="http://www.w3.org/2000/svg">
<path d="M17.9951 8.22675C17.9929 8.19263 17.9865 8.16 17.9752 8.12775C17.9711 8.11575 17.9681 8.10413 17.9629 8.0925C17.9449 8.0535 17.922 8.01675 17.8905 7.98563L15.75 5.84475V3.75C15.75 3.74175 15.7459 3.73463 15.7451 3.72638C15.7429 3.69338 15.7365 3.6615 15.726 3.63C15.7219 3.618 15.7189 3.60638 15.7133 3.59475C15.6949 3.555 15.672 3.51713 15.6398 3.48488L12.2648 0.109875C12.2325 0.077625 12.1946 0.054375 12.1545 0.036375C12.1432 0.031125 12.132 0.028125 12.1204 0.024375C12.0885 0.013125 12.0559 0.00675 12.0217 0.004875C12.0146 0.00375 12.0079 0 12 0H2.625C2.418 0 2.25 0.168 2.25 0.375V5.84475L0.109875 7.98488C0.109875 7.98488 0.1095 7.98525 0.109125 7.98563C0.077625 8.01713 0.055125 8.05388 0.037125 8.0925C0.031875 8.10413 0.028875 8.11575 0.02475 8.12775C0.0135 8.16 0.00675 8.19263 0.004875 8.22675C0.004125 8.235 0 8.24175 0 8.25V15.375C0 15.582 0.168 15.75 0.375 15.75H2.25V17.625C2.25 17.832 2.418 18 2.625 18H15.375C15.582 18 15.75 17.832 15.75 17.625V15.75H17.625C17.832 15.75 18 15.582 18 15.375V8.25C18 8.24175 17.9959 8.235 17.9951 8.22675ZM16.7197 7.875H15.75V6.90525L16.7197 7.875ZM14.4697 3.375H12.375V1.28025L14.4697 3.375ZM3 0.75H11.625V3.75C11.625 3.957 11.793 4.125 12 4.125H15V7.875H3V0.75ZM2.25 6.90525V7.875H1.28025L2.25 6.90525ZM15 17.25H3V15.75H15V17.25ZM17.25 15H0.75V8.625H17.25V15Z" fill="#37354D"/>
<path d="M12.5955 12.3502H13.1437V13.5169C13.0927 13.5551 13.026 13.5859 12.9431 13.6091C12.8602 13.6328 12.768 13.6444 12.666 13.6444C12.5044 13.6444 12.3652 13.602 12.2486 13.5169C12.1316 13.4317 12.0352 13.314 11.9584 13.1629C11.8819 13.0121 11.8245 12.8359 11.7862 12.6337C11.748 12.432 11.7289 12.2164 11.7289 11.9869C11.7289 11.766 11.748 11.5556 11.7862 11.3557C11.8245 11.1559 11.8819 10.9807 11.9584 10.8296C12.0349 10.6789 12.1316 10.5589 12.2486 10.4696C12.3656 10.3804 12.5025 10.3357 12.66 10.3357C12.9491 10.3357 13.1786 10.4591 13.3485 10.7055L13.7884 10.17C13.665 9.99562 13.5056 9.861 13.3102 9.765C13.1149 9.66938 12.8831 9.62175 12.6154 9.62175C12.3604 9.62175 12.1309 9.68025 11.9269 9.79687C11.7229 9.91387 11.5485 10.0774 11.4041 10.2878C11.2598 10.4985 11.1491 10.7479 11.0726 11.037C10.9961 11.3261 10.9579 11.6426 10.9579 11.9869C10.9579 12.3397 10.9972 12.6604 11.076 12.9495C11.1547 13.2386 11.2673 13.4873 11.4139 13.6954C11.5605 13.9035 11.7401 14.064 11.9528 14.1765C12.1654 14.2894 12.4054 14.3456 12.6731 14.3456C12.9367 14.3456 13.1629 14.3115 13.3522 14.2436C13.5412 14.1758 13.704 14.0865 13.8397 13.9759V11.6873H12.5966C12.5955 11.6873 12.5955 12.3502 12.5955 12.3502Z" fill="#37354D"/>
<path d="M6.37012 10.02C6.249 9.91613 6.11212 9.84262 5.95875 9.80025C5.80575 9.75787 5.65688 9.7365 5.5125 9.7365H4.263V14.25H5.01525V12.4395H5.55075C5.70788 12.4395 5.86087 12.4118 6.00975 12.3566C6.15862 12.3015 6.29025 12.2164 6.405 12.1016C6.51975 11.9869 6.612 11.8436 6.6825 11.6711C6.75263 11.499 6.78787 11.2984 6.78787 11.0689C6.78787 10.8139 6.7485 10.6012 6.66975 10.4314C6.591 10.2615 6.49125 10.1243 6.37012 10.02ZM5.889 11.6265C5.77425 11.7521 5.62762 11.8148 5.44912 11.8148H5.01563V10.3804H5.44912C5.62762 10.3804 5.77425 10.4355 5.889 10.5461C6.00375 10.6568 6.06113 10.833 6.06113 11.0752C6.06113 11.3175 6.00375 11.5013 5.889 11.6265Z" fill="#37354D"/>
<path d="M9.58013 12.9431H9.561L8.29238 9.7365H7.419V14.25H8.1075L8.09475 11.0625H8.11387L9.39525 14.25H10.2368V9.7365H9.57375L9.58013 12.9431Z" fill="#37354D"/>
</svg>
