<svg width="18" height="18" viewBox="0 0 18 18" fill="none" xmlns="http://www.w3.org/2000/svg">
<path d="M17.9951 8.22675C17.9929 8.19263 17.9865 8.16 17.9752 8.12775C17.9711 8.11575 17.9681 8.10413 17.9629 8.0925C17.9449 8.0535 17.922 8.01675 17.8905 7.98563L15.75 5.84475V3.75C15.75 3.74175 15.7459 3.73463 15.7451 3.72638C15.7429 3.69338 15.7365 3.6615 15.726 3.63C15.7219 3.618 15.7189 3.60638 15.7133 3.59475C15.6949 3.555 15.672 3.51713 15.6398 3.48488L12.2648 0.109875C12.2325 0.077625 12.1946 0.054375 12.1545 0.036375C12.1432 0.031125 12.132 0.028125 12.1204 0.024375C12.0885 0.013125 12.0559 0.00675 12.0217 0.004875C12.0146 0.00375 12.0079 0 12 0H2.625C2.418 0 2.25 0.168 2.25 0.375V5.84475L0.109875 7.98488C0.109875 7.98488 0.1095 7.98525 0.109125 7.98563C0.077625 8.01713 0.055125 8.05388 0.037125 8.0925C0.031875 8.10413 0.028875 8.11575 0.02475 8.12775C0.0135 8.16 0.00675 8.19263 0.004875 8.22675C0.004125 8.235 0 8.24175 0 8.25V15.375C0 15.582 0.168 15.75 0.375 15.75H2.25V17.625C2.25 17.832 2.418 18 2.625 18H15.375C15.582 18 15.75 17.832 15.75 17.625V15.75H17.625C17.832 15.75 18 15.582 18 15.375V8.25C18 8.24175 17.9959 8.235 17.9951 8.22675ZM16.7197 7.875H15.75V6.90525L16.7197 7.875ZM14.4697 3.375H12.375V1.28025L14.4697 3.375ZM3 0.75H11.625V3.75C11.625 3.957 11.793 4.125 12 4.125H15V7.875H3V0.75ZM2.25 6.90525V7.875H1.28025L2.25 6.90525ZM15 17.25H3V15.75H15V17.25ZM17.25 15H0.75V8.625H17.25V15Z" fill="white"/>
<path d="M5.46825 10.4123H6.8835L5.36625 13.6189V14.25H7.725V13.5615H6.21412L7.725 10.3549V9.7365H5.46825V10.4123Z" fill="white"/>
<path d="M9.1785 9.7365H8.4135V14.25H9.1785V9.7365Z" fill="white"/>
<path d="M12.2032 10.02C12.0821 9.91613 11.9452 9.84262 11.7919 9.80025C11.6389 9.75787 11.49 9.7365 11.3456 9.7365H10.0961V14.25H10.8484V12.4395H11.3839C11.541 12.4395 11.694 12.4118 11.8429 12.3566C11.9917 12.3015 12.1234 12.2164 12.2381 12.1016C12.3529 11.9869 12.4455 11.8436 12.5152 11.6711C12.5854 11.499 12.6202 11.2984 12.6202 11.0689C12.6202 10.8139 12.5809 10.6012 12.5025 10.4314C12.4245 10.2615 12.3247 10.1243 12.2032 10.02ZM11.7221 11.6269C11.6074 11.7521 11.4607 11.8148 11.2822 11.8148H10.8488V10.3804H11.2822C11.4607 10.3804 11.6074 10.4355 11.7221 10.5461C11.8369 10.6568 11.8942 10.833 11.8942 11.0752C11.8942 11.3175 11.8369 11.5013 11.7221 11.6269Z" fill="white"/>
</svg>
